<svg xmlns="http://www.w3.org/2000/svg" viewBox="0 0 119.92 47.03"><defs><style>.cls-1{fill:none;}.cls-2{fill:#d6fa7b;}</style></defs><g id="Layer_2" data-name="Layer 2"><g id="Layer_1-2" data-name="Layer 1"><rect class="cls-1" width="119.92" height="47.03"/><rect class="cls-2" x="28.87" width="15.68" height="47.03"/><polygon points="31.14 7.73 31.95 8.54 36.65 3.84 41.34 8.54 42.16 7.73 36.65 2.22 31.14 7.73"/><polygon points="31.14 23.58 31.95 24.4 36.65 19.7 41.34 24.4 42.16 23.58 36.65 18.08 31.14 23.58"/><polygon points="31.14 39.08 31.95 39.89 36.65 35.2 41.34 39.89 42.16 39.08 36.65 33.57 31.14 39.08"/><path d="M17.35,24.6v5H15.67v-12H20.5a9.66,9.66,0,0,1,2.08.2,4.9,4.9,0,0,1,1.65.63,3,3,0,0,1,1.45,2.71,3.41,3.41,0,0,1-.38,1.67,2.84,2.84,0,0,1-1,1.09,4.57,4.57,0,0,1-1.58.6,11.53,11.53,0,0,1-2,.17Zm0-1.29H21a3.61,3.61,0,0,0,2.21-.52A2.13,2.13,0,0,0,24,21.07a2,2,0,0,0-.81-1.68A3.64,3.64,0,0,0,21,18.85H17.35Z"/><path d="M49.39,24.6v5H47.7v-12h4.83a9.76,9.76,0,0,1,2.09.2,4.84,4.84,0,0,1,1.64.63,3.21,3.21,0,0,1,1.07,1.1,3.28,3.28,0,0,1,.38,1.61,3.41,3.41,0,0,1-.37,1.67,2.94,2.94,0,0,1-1,1.09,4.49,4.49,0,0,1-1.58.6,11.33,11.33,0,0,1-2,.17Zm0-1.29h3.68a3.66,3.66,0,0,0,2.22-.52,2.13,2.13,0,0,0,.7-1.72,2,2,0,0,0-.81-1.68,3.62,3.62,0,0,0-2.11-.54H49.39Z"/><path d="M87.62,29.57l-3.9-5.07h-3v5.07H79v-12h4.8a9.4,9.4,0,0,1,2,.21,4.93,4.93,0,0,1,1.64.64,3.22,3.22,0,0,1,1.09,1.08A3,3,0,0,1,88.92,21a3,3,0,0,1-.82,2.23,4.07,4.07,0,0,1-2.5,1l4,5.3ZM80.68,18.81v4.4h3.55a3.78,3.78,0,0,0,2.2-.52A1.91,1.91,0,0,0,87.15,21a2,2,0,0,0-.23-1,2,2,0,0,0-.62-.69,3,3,0,0,0-.92-.41,4.65,4.65,0,0,0-1.15-.14Z"/><path d="M25.84,41.36A4.78,4.78,0,0,1,25.4,43a3.59,3.59,0,0,1-1,1.27,4.74,4.74,0,0,1-1.65.83,8.13,8.13,0,0,1-2.34.29,6.64,6.64,0,0,1-2.78-.51,4.7,4.7,0,0,1-1.79-1.37,5.51,5.51,0,0,1-1-2,9.6,9.6,0,0,1-.29-2.36,10.29,10.29,0,0,1,.26-2.31,5.16,5.16,0,0,1,.91-2,4.61,4.61,0,0,1,1.78-1.38A6.74,6.74,0,0,1,20.39,33a8.32,8.32,0,0,1,2.3.28,4.89,4.89,0,0,1,1.65.81,3.62,3.62,0,0,1,1,1.23,4.51,4.51,0,0,1,.43,1.53H24a2.91,2.91,0,0,0-.31-.93,2.73,2.73,0,0,0-.67-.78,3.64,3.64,0,0,0-1-.54,4.82,4.82,0,0,0-1.44-.2h-.28a4.27,4.27,0,0,0-1.94.39,3.23,3.23,0,0,0-1.22,1.06,4.15,4.15,0,0,0-.62,1.53,8.86,8.86,0,0,0-.18,1.8,9.45,9.45,0,0,0,.16,1.76,4,4,0,0,0,.6,1.55,3.17,3.17,0,0,0,1.21,1.11,4.23,4.23,0,0,0,2,.41h.26a4.52,4.52,0,0,0,1.55-.23,3.28,3.28,0,0,0,1.09-.62,2.58,2.58,0,0,0,.64-.85,2.27,2.27,0,0,0,.22-.94Z"/><path d="M49.42,40.25v5H47.74v-12h4.83a9.66,9.66,0,0,1,2.08.2A4.9,4.9,0,0,1,56.3,34a3,3,0,0,1,1.45,2.71,3.41,3.41,0,0,1-.38,1.67,2.91,2.91,0,0,1-1,1.09,4.57,4.57,0,0,1-1.58.6,11.53,11.53,0,0,1-2,.17Zm0-1.29h3.69a3.61,3.61,0,0,0,2.21-.52A2.13,2.13,0,0,0,56,36.72,2,2,0,0,0,55.22,35a3.64,3.64,0,0,0-2.11-.54H49.42Z"/><path d="M69.36,33.18v12H67.63v-12Z"/><path d="M89.81,33.18v1.28H85.13V45.22H83.45V34.46H78.77V33.18Z"/><path d="M104.55,45.22l-1.44-3.16H96.63l-1.41,3.16H93.45l5.63-12h1.63l5.68,12ZM99.88,34.9l-2.66,5.92h5.33Z"/><path d="M111.63,33.18h1.71V43.9h6.58v1.32h-8.29Z"/><path d="M9.45,5.49a2.43,2.43,0,0,0-.32-1,2.56,2.56,0,0,0-.69-.78,3.61,3.61,0,0,0-1.06-.52A5.08,5.08,0,0,0,6,3H5.68a4.27,4.27,0,0,0-1.94.39A3.23,3.23,0,0,0,2.52,4.49,4.34,4.34,0,0,0,1.89,6a9.56,9.56,0,0,0-.17,1.8,11.5,11.5,0,0,0,.14,1.76,4.16,4.16,0,0,0,.56,1.55,3,3,0,0,0,1.17,1.1,4.08,4.08,0,0,0,2,.42h.26a5.26,5.26,0,0,0,1.84-.29,3.35,3.35,0,0,0,1.24-.79,3,3,0,0,0,.7-1.17A4.61,4.61,0,0,0,9.84,9H5.53V7.61h5.84v6.26H10v-2A3.5,3.5,0,0,1,8.41,13.5,6,6,0,0,1,5.7,14a6.54,6.54,0,0,1-2.76-.51,4.56,4.56,0,0,1-1.75-1.37,5.46,5.46,0,0,1-.92-2A10.1,10.1,0,0,1,0,7.82,10.29,10.29,0,0,1,.26,5.51a5.16,5.16,0,0,1,.91-2A4.52,4.52,0,0,1,3,2.16,6.71,6.71,0,0,1,5.8,1.63a8.32,8.32,0,0,1,2.31.29,4.89,4.89,0,0,1,1.65.81,3.73,3.73,0,0,1,1,1.22,3.68,3.68,0,0,1,.42,1.54Z"/><path d="M24.38,13.87,20.49,8.79h-3v5.08H15.73v-12h4.79a9.57,9.57,0,0,1,2.05.2,5.26,5.26,0,0,1,1.64.65,3.28,3.28,0,0,1,1.08,1.08,3,3,0,0,1,.4,1.56,3,3,0,0,1-.82,2.23,4.1,4.1,0,0,1-2.5,1l4,5.3ZM17.45,3.11v4.4H21A3.74,3.74,0,0,0,23.19,7a1.91,1.91,0,0,0,.72-1.68,2,2,0,0,0-.22-1,2,2,0,0,0-.62-.69,2.86,2.86,0,0,0-.92-.41A4.67,4.67,0,0,0,21,3.11Z"/><path d="M49.4,8.9v5H47.72v-12h4.83a9.66,9.66,0,0,1,2.08.2,4.9,4.9,0,0,1,1.65.63,3.18,3.18,0,0,1,1.06,1.1,3.15,3.15,0,0,1,.39,1.61A3.41,3.41,0,0,1,57.35,7a2.91,2.91,0,0,1-1,1.09,4.37,4.37,0,0,1-1.58.59,10.61,10.61,0,0,1-2,.18Zm0-1.29h3.69a3.61,3.61,0,0,0,2.21-.52A2.15,2.15,0,0,0,56,5.37a2,2,0,0,0-.81-1.69,3.72,3.72,0,0,0-2.11-.53H49.4Z"/><path d="M72,1.83h1.72v12H72V8.29H65v5.58H63.28v-12H65V7h7Z"/><rect x="63.28" y="17.53" width="10.43" height="1.54"/><rect x="63.28" y="28.03" width="10.43" height="1.54"/><rect x="64.77" y="22.9" width="7.45" height="1.3"/></g></g></svg>